<svg width="22" height="17" viewBox="0 0 22 17" fill="none" xmlns="http://www.w3.org/2000/svg">
<path id="Vector" d="M19.1891 12.8432V4.97697L21.3827 3.58567L20.4553 2.12303L19.1712 2.9257V0.981445H2.94185V3.01489L1.76477 2.30138L0.873047 3.78188L2.95968 5.04833V13.1821L0.980077 14.4485L1.90745 15.9112L2.97753 15.2334V16.9279H19.2069V14.8766L20.6158 15.715L21.5075 14.2345L19.2069 12.8254L19.1891 12.8432ZM11.1635 7.99147L6.41957 5.11967C7.52531 3.79971 9.18393 2.96138 11.0387 2.96138C12.8935 2.96138 14.5699 3.7997 15.6757 5.1375L11.1457 7.99147H11.1635ZM16.6031 6.60016C16.9241 7.33149 17.1024 8.152 17.1024 9.02603C17.1024 9.84654 16.9419 10.6135 16.6566 11.3092L12.8222 8.99035L16.6031 6.60016ZM9.5406 9.02603L5.56352 11.5411C5.20683 10.7741 5.01066 9.91789 5.01066 9.02603C5.01066 8.13417 5.18899 7.3315 5.52785 6.58234L9.55846 9.02603H9.5406ZM4.08326 2.10517C4.08326 2.10517 9.13042 2.10517 9.3801 2.10517C9.13042 2.12301 7.06161 2.92569 6.08071 3.92458C5.90237 4.10295 5.70619 4.33484 5.52785 4.56672L4.08326 3.69269C4.08326 2.81866 4.08326 2.12301 4.08326 2.10517ZM4.06543 5.7083L4.60047 6.02936C4.29729 6.58231 4.08327 7.0461 4.06543 7.1888C4.06543 7.0461 4.06543 6.43963 4.06543 5.7083ZM4.63612 12.1119L4.06543 12.4686V10.9346C4.22594 11.327 4.42211 11.7373 4.63612 12.1119ZM4.06543 15.7685V14.5199L5.56352 13.5745L5.8132 13.8599C6.24123 14.2702 6.66927 14.6448 7.18647 14.9658C7.7215 15.3047 8.2922 15.5723 8.88074 15.7685H4.06543ZM6.49092 13.0037L11.1992 10.0427L15.7827 12.8254C14.6769 14.2167 12.9648 15.0907 11.0565 15.0907C9.14826 15.0907 7.59666 14.288 6.49092 13.0037ZM18.1012 15.7685H13.3215C14.6413 15.3404 15.7827 14.4485 16.6566 13.3426L18.1012 14.2167V15.7685ZM17.6018 11.88C17.798 11.4876 17.9585 11.0952 18.1012 10.7027C18.1012 10.9525 18.1012 11.5232 18.1012 12.1832L17.6018 11.88ZM18.1012 7.1888C18.1012 6.92124 17.7445 6.45745 17.6196 6.22557L17.5126 6.02936L18.1012 5.65479C18.1012 6.51098 18.1012 7.1888 18.1012 7.1888ZM18.1012 3.60349L16.6209 4.54889C16.4425 4.31701 16.2642 4.10294 16.0324 3.8889C15.3546 3.26459 14.5521 2.81867 13.7139 2.44408C13.4285 2.31922 12.84 2.10517 12.84 2.10517C14.2846 2.10517 18.0833 2.10517 18.0833 2.10517C18.0833 2.10517 18.0833 2.76514 18.0833 3.60349H18.1012Z" fill="black"/>
</svg>
