<svg width="19" height="18" viewBox="0 0 19 18" fill="none" xmlns="http://www.w3.org/2000/svg">
<g id="Group 46">
<path id="Vector" d="M1.95987 8.93645C1.95987 4.72686 5.38408 1.30211 9.59302 1.30211C13.802 1.30211 17.2262 4.72686 17.2262 8.93645C17.2262 13.146 13.802 16.5708 9.59302 16.5708C5.38408 16.5708 1.95987 13.146 1.95987 8.93645ZM9.59302 17.8551C14.5153 17.8551 18.5103 13.8595 18.5103 8.93645C18.5103 4.01337 14.4975 0 9.59302 0C4.68854 0 0.675781 4.01337 0.675781 8.93645C0.675781 13.8595 4.68854 17.8551 9.59302 17.8551Z" fill="black"/>
<path id="Vector_2" d="M6.24075 13.3604V4.54883H9.55797C10.1465 4.54883 10.5924 4.58448 10.8956 4.63799C11.3236 4.70934 11.6981 4.85206 11.9834 5.04827C12.2688 5.24448 12.5007 5.52987 12.679 5.90445C12.8573 6.27903 12.9465 6.67144 12.9465 7.11737C12.9465 7.86653 12.6968 8.50868 12.2331 9.02596C11.7516 9.54324 10.8955 9.81081 9.64713 9.81081H7.38216V13.3961H6.20508L6.24075 13.3604ZM7.41782 8.72273H9.70063C10.4497 8.72273 10.9847 8.58003 11.3057 8.29463C11.6268 8.00924 11.7873 7.61681 11.7873 7.11737C11.7873 6.74279 11.6981 6.43955 11.5019 6.172C11.3236 5.90444 11.0739 5.74391 10.7707 5.65473C10.5745 5.60122 10.2178 5.58336 9.68281 5.58336H7.43566V8.72273H7.41782Z" fill="black"/>
</g>
</svg>
