<svg width="22" height="14" viewBox="0 0 22 14" fill="none" xmlns="http://www.w3.org/2000/svg">
<path id="Vector" d="M20.1173 0.158203L19.6714 2.08463C19.6714 2.08463 18.2268 1.49601 17.5135 1.71006C16.6217 2.06681 15.8013 2.69109 14.8383 2.8873C14.2141 2.8873 13.6255 2.88732 13.0548 2.60192C12.2523 2.19167 11.3784 1.88842 10.4332 1.97761C9.64845 2.06679 9.07775 2.45921 8.41787 2.72677C6.81277 3.33324 5.54652 2.22733 4.1911 1.7814C3.60256 1.58519 2.97836 1.85275 2.44333 2.0668C2.28282 2.13815 1.94396 2.33435 1.87263 2.03112C1.74778 1.38898 1.40893 0.193885 1.40893 0.193885L0 0.479288L3.37071 13.7145L18.53 13.661L21.6867 0.390096L20.0994 0.158203H20.1173ZM19.3861 3.11919C18.53 6.02666 17.3173 11.9843 17.3173 11.9843L4.40512 11.9486C4.40512 11.9486 2.99619 6.11585 2.28281 3.20838C2.62167 2.78029 3.17454 2.45923 3.69174 2.54841C4.61913 2.7803 5.36817 3.40458 6.27773 3.67214C6.70576 3.90402 7.16946 3.74349 7.63315 3.76133C8.93507 3.83268 9.84463 2.45921 11.2536 2.83379C12.0383 3.03 12.6982 3.52944 13.465 3.67214C14.1606 3.797 14.9453 3.67214 15.5873 3.47593C16.6217 3.15486 17.4421 2.13813 18.53 2.49488C18.8689 2.6019 19.4217 2.69111 19.3861 3.10136V3.11919Z" fill="black"/>
</svg>
