<svg width="26" height="14" viewBox="0 0 26 14" fill="none" xmlns="http://www.w3.org/2000/svg">
<path id="Vector" d="M21.1727 1.29944C20.602 0.461088 19.639 0.0686816 18.6224 0.0865188C14.4313 0.157868 10.2402 0.0865166 6.04908 0.140028L5.95991 0.354066C6.26309 0.960533 6.60194 1.51351 6.95863 2.10214C9.45546 2.19132 11.9701 2.13781 14.467 2.40536C15.3944 2.51239 16.3574 2.65509 17.3026 2.8513C19.9956 3.40425 19.532 3.15452 20.4415 6.07983C20.495 6.2582 20.1026 6.24035 19.9243 6.25819C16.2861 6.40089 12.6478 6.18684 9.00961 6.34738C8.61726 6.34738 8.17138 6.43658 7.74335 6.47225C7.22615 6.52576 6.63763 6.6863 6.08476 6.86467C5.1217 7.18574 4.1408 7.66734 3.37391 8.30949C2.21467 9.2727 1.1981 10.5748 0.752242 12.1088C0.591732 12.6618 0.324219 13.8034 0.324219 13.8034H25.0963C24.9358 13.3039 24.7753 12.7866 24.6148 12.2694C23.9371 9.897 23.2237 7.52463 22.439 5.17011C22.0466 4.01069 21.9039 2.70859 21.3689 1.62052C21.3154 1.5135 21.2619 1.40648 21.1906 1.31729L21.1727 1.29944ZM2.23251 12.3407C2.14333 12.1802 2.26818 12.0196 2.32168 11.8591C2.64271 10.9494 3.40959 10.2181 4.15863 9.59377C5.65673 8.32732 7.45802 7.82788 9.40197 7.81004C12.844 7.77437 16.3039 7.66734 19.746 7.72085C20.1205 7.72085 20.5307 7.59599 20.923 7.72085C21.2797 9.14783 21.6899 10.5391 22.2428 11.9126V12.2158C15.5727 12.305 8.92044 12.2337 2.25035 12.3407H2.23251Z" fill="black"/>
</svg>
